<svg xmlns="http://www.w3.org/2000/svg" width="363.612" height="59.796" viewBox="0 0 363.612 59.796">
  <g id="Group_1297" data-name="Group 1297" transform="translate(-778 -75)">
    <g id="Group_1286" data-name="Group 1286" transform="translate(538.861 -192.74)">
      <circle id="Ellipse_3" data-name="Ellipse 3" cx="1.415" cy="1.415" r="1.415" transform="translate(253.184 267.74)" fill="#040505"/>
      <path id="Path_1525" data-name="Path 1525" d="M251.381,273.755c-7.041,0-12.242,5.661-12.242,12.807s5.166,12.808,12.242,12.808,12.241-5.661,12.241-12.808S258.421,273.755,251.381,273.755Zm0,23.811c-6.192,0-10.332-4.918-10.332-11s4.14-11,10.332-11,10.33,4.918,10.33,11S257.572,297.566,251.381,297.566Z" fill="#040505"/>
      <circle id="Ellipse_4" data-name="Ellipse 4" cx="1.415" cy="1.415" r="1.415" transform="translate(246.781 267.74)" fill="#040505"/>
      <path id="Path_1526" data-name="Path 1526" d="M297.2,289.393l-9.482-15.214h-1.733v24.767h1.8V277.859l9.411,14.9,9.377-14.93v21.122h1.839V274.179H306.68Z" fill="#040505"/>
      <path id="Path_1527" data-name="Path 1527" d="M334.172,287.093h11.039v-1.7H334.172v-9.517H346.06v-1.7H332.332v24.767h13.939v-1.7h-12.1Z" fill="#040505"/>
      <path id="Path_1528" data-name="Path 1528" d="M383.07,281.185c0-4.069-2.937-7.006-8.032-7.006h-5.979v24.767h1.84V288.19h3.68l6.934,10.756h2.229l-7.076-10.862C378.4,287.907,383.07,286.527,383.07,281.185ZM370.9,286.421V275.948h4.246c3.679,0,6.014,1.982,6.014,5.237s-2.3,5.236-6.014,5.236Z" fill="#040505"/>
      <path id="Path_1529" data-name="Path 1529" d="M439.4,274.179h-6.333v24.767H434.9v-10.4H439.4c4.812,0,7.819-3.114,7.819-7.182S444.208,274.179,439.4,274.179Zm.035,12.666H434.9V275.877h4.529c3.467,0,5.874,2.23,5.874,5.485S442.9,286.845,439.431,286.845Z" fill="#040505"/>
      <path id="Path_1530" data-name="Path 1530" d="M491.867,286.562c0-7.146-5.2-12.807-12.241-12.807s-12.242,5.661-12.242,12.807,5.166,12.808,12.242,12.808S491.867,293.709,491.867,286.562Zm-22.573,0c0-6.085,4.14-11,10.332-11s10.33,4.918,10.33,11-4.139,11-10.33,11S469.294,292.648,469.294,286.562Z" fill="#040505"/>
      <path id="Path_1531" data-name="Path 1531" d="M527.884,297.247H516.068V274.179h-1.84v24.767h13.656Z" fill="#040505"/>
      <path id="Path_1532" data-name="Path 1532" d="M556.367,274.179l-9.872,24.767h1.982l2.83-7.218h12.171l2.83,7.218h1.982l-9.872-24.767Zm-4.352,15.851,5.377-13.8,5.378,13.8Z" fill="#040505"/>
      <path id="Path_1533" data-name="Path 1533" d="M585.98,274.179v1.7h7.466v23.068h1.84V275.877h7.466v-1.7Z" fill="#040505"/>
    </g>
    <g id="Group_1287" data-name="Group 1287" transform="translate(538.861 -192.74)">
      <path id="Path_1534" data-name="Path 1534" d="M297.27,327.12a1.078,1.078,0,0,1-.431-.522h0l-2.887-6.909h-.1a.983.983,0,0,1-.06.269c-.04.123-.087.248-.14.378s-.121.284-.2.463L291,326.628a1.129,1.129,0,0,1-.417.492,1,1,0,0,1-.512.157h-.1v.108h2.166v-.108h-.1a.465.465,0,0,1-.253-.08.438.438,0,0,1-.177-.232.54.54,0,0,1,.02-.355l.722-1.844h2.908l.7,1.848a.46.46,0,0,1-.046.485.483.483,0,0,1-.366.178h-.1v.108h2.425v-.108h-.087A1.027,1.027,0,0,1,297.27,327.12Zm-4.789-2.678,1.355-3.461,1.3,3.461Z" fill="#040505"/>
      <path id="Path_1535" data-name="Path 1535" d="M307.3,326.372a1.542,1.542,0,0,1-.587.5,2.11,2.11,0,0,1-.932.177h-1.542v-3.222h1.822a.492.492,0,0,1,.366.156.52.52,0,0,1,.152.372v.162h.107v-1.7h-.107v.151a.52.52,0,0,1-.152.372.526.526,0,0,1-.366.167h-1.822v-3.331h2.214a.636.636,0,0,1,.4.189.618.618,0,0,1,.184.447V321h.107v-1.357a1.629,1.629,0,0,1-.323.086c-.151.028-.314.054-.491.075a4.018,4.018,0,0,1-.5.033h-3.127l.011.107h.13a.673.673,0,0,1,.484.2.648.648,0,0,1,.206.481V326.6a.694.694,0,0,1-.211.479.65.65,0,0,1-.479.2h-.141v.108h4.474l.625-1.746H307.7A3.9,3.9,0,0,1,307.3,326.372Z" fill="#040505"/>
      <path id="Path_1536" data-name="Path 1536" d="M316.564,324.2l-2.123-1.962a1.26,1.26,0,0,1-.339-.512,1.523,1.523,0,0,1-.092-.48,1.2,1.2,0,0,1,.367-.867,1.284,1.284,0,0,1,.959-.372,1.3,1.3,0,0,1,.862.3,1,1,0,0,1,.355.814h.1V319.8h-.464l-.124-.027c-.126-.025-.255-.044-.388-.059a3.573,3.573,0,0,0-.372-.021,1.941,1.941,0,0,0-1.04.264,1.716,1.716,0,0,0-.641.684,1.9,1.9,0,0,0-.216.873,1.984,1.984,0,0,0,.13.674,1.676,1.676,0,0,0,.453.663l2.069,1.919a1.224,1.224,0,0,1,.313.436,1.446,1.446,0,0,1,.108.566,1.32,1.32,0,0,1-.426,1.03,1.612,1.612,0,0,1-1.019.415,1.54,1.54,0,0,1-.847-.19,1.352,1.352,0,0,1-.565-.619,1.8,1.8,0,0,1-.14-.96h-.1a3.478,3.478,0,0,0-.119.523,3.757,3.757,0,0,0-.042.545,2.468,2.468,0,0,0,.031.431,1.632,1.632,0,0,0,.545.351,2.962,2.962,0,0,0,.679.188,4.069,4.069,0,0,0,.609.054,1.953,1.953,0,0,0,1.471-.561,2,2,0,0,0,.544-1.455,2.27,2.27,0,0,0-.107-.669A1.509,1.509,0,0,0,316.564,324.2Z" fill="#040505"/>
      <path id="Path_1537" data-name="Path 1537" d="M327.673,319.8a4.281,4.281,0,0,1-.5.033h-3.61a4.31,4.31,0,0,1-.5-.033c-.18-.021-.344-.046-.492-.076a1.988,1.988,0,0,1-.328-.085v1.358l.107-.011V320.8a.618.618,0,0,1,.184-.453.657.657,0,0,1,.453-.194h2.027V326.6a.69.69,0,0,1-.211.479.649.649,0,0,1-.479.2h-.141v.108h2.362v-.108h-.141a.647.647,0,0,1-.479-.2.686.686,0,0,1-.211-.479v-6.446h2.026a.663.663,0,0,1,.448.194.61.61,0,0,1,.188.453v.183l.108.011v-1.358a1.626,1.626,0,0,1-.323.085C328.012,319.75,327.848,319.775,327.673,319.8Z" fill="#040505"/>
      <path id="Path_1538" data-name="Path 1538" d="M340.257,319.84h-1.5v.107h.14a.676.676,0,0,1,.485.2.647.647,0,0,1,.2.481v2.867h-4.408v-2.867a.7.7,0,0,1,.209-.481.659.659,0,0,1,.48-.2h.14v-.107h-2.36v.107h.14a.661.661,0,0,1,.48.2.7.7,0,0,1,.21.481V326.6a.7.7,0,0,1-.21.479.654.654,0,0,1-.48.2h-.14v.108h2.36v-.108h-.14a.653.653,0,0,1-.48-.2.692.692,0,0,1-.209-.479v-2.78h4.408v2.78a.641.641,0,0,1-.2.479.669.669,0,0,1-.485.2h-.14v.108h2.361v-.108h-.14a.649.649,0,0,1-.48-.2.689.689,0,0,1-.21-.479v-5.971a.7.7,0,0,1,.21-.481.656.656,0,0,1,.48-.2h.14v-.107h-.863Z" fill="#040505"/>
      <path id="Path_1539" data-name="Path 1539" d="M351.317,326.372a1.55,1.55,0,0,1-.587.5,2.112,2.112,0,0,1-.933.177h-1.541v-3.222h1.821a.49.49,0,0,1,.366.156.516.516,0,0,1,.152.372v.162h.108v-1.7H350.6v.151a.516.516,0,0,1-.152.372.524.524,0,0,1-.366.167h-1.821v-3.331h2.213a.64.64,0,0,1,.406.189.621.621,0,0,1,.183.447V321h.108v-1.357a1.623,1.623,0,0,1-.324.086c-.151.028-.314.054-.49.075a4.045,4.045,0,0,1-.5.033h-3.126l.01.107h.13a.672.672,0,0,1,.484.2.648.648,0,0,1,.206.481V326.6a.7.7,0,0,1-.21.479.654.654,0,0,1-.48.2h-.14v.108H351.2l.624-1.746h-.107A3.951,3.951,0,0,1,351.317,326.372Z" fill="#040505"/>
      <path id="Path_1540" data-name="Path 1540" d="M362.253,319.8a4.281,4.281,0,0,1-.5.033H358.14a4.31,4.31,0,0,1-.5-.033c-.18-.021-.344-.046-.491-.076a2.034,2.034,0,0,1-.329-.085v1.358l.108-.011V320.8a.618.618,0,0,1,.184-.453.653.653,0,0,1,.452-.194H359.6V326.6a.689.689,0,0,1-.21.479.653.653,0,0,1-.48.2h-.14v.108h2.361v-.108h-.14a.651.651,0,0,1-.48-.2.689.689,0,0,1-.21-.479v-6.446h2.026a.665.665,0,0,1,.448.194.61.61,0,0,1,.188.453v.183l.107.011v-1.358a1.612,1.612,0,0,1-.322.085C362.592,319.75,362.428,319.775,362.253,319.8Z" fill="#040505"/>
      <path id="Path_1541" data-name="Path 1541" d="M369.728,319.84h-1.5v.107h.141a.657.657,0,0,1,.479.2.705.705,0,0,1,.211.481V326.6a.7.7,0,0,1-.211.479.65.65,0,0,1-.479.2h-.141v.108h2.361v-.108h-.141a.65.65,0,0,1-.479-.2.693.693,0,0,1-.21-.479v-5.971a.7.7,0,0,1,.21-.481.657.657,0,0,1,.479-.2h.141v-.107h-.862Z" fill="#040505"/>
      <path id="Path_1542" data-name="Path 1542" d="M382.543,325.989a2.54,2.54,0,0,1-1.094.937,3.484,3.484,0,0,1-1.417.287,2.953,2.953,0,0,1-1.59-.475,3.009,3.009,0,0,1-1.067-1.261,4.823,4.823,0,0,1,0-3.767A3.083,3.083,0,0,1,381.8,320.5a2.334,2.334,0,0,1,.971,1.438h.1l-.215-1.52a4.586,4.586,0,0,0-2.556-.732,4.172,4.172,0,0,0-2.063.49,3.442,3.442,0,0,0-1.364,1.369,4.613,4.613,0,0,0,.005,4.128,3.448,3.448,0,0,0,1.364,1.364,4.109,4.109,0,0,0,1.994.5,3.816,3.816,0,0,0,1.32-.211,3.228,3.228,0,0,0,1-.571,3.351,3.351,0,0,0,.706-.824l.129-1.693H383.1A3.826,3.826,0,0,1,382.543,325.989Z" fill="#040505"/>
      <path id="Path_1543" data-name="Path 1543" d="M399.693,320.088a2.631,2.631,0,0,0-1.186-.248h-2.813l.011.107h.13a.675.675,0,0,1,.484.2.648.648,0,0,1,.206.481V326.6a.7.7,0,0,1-.211.479.652.652,0,0,1-.479.2h-.141v.108h2.36v-.108h-.14a.65.65,0,0,1-.479-.2.689.689,0,0,1-.21-.479v-6.436h1.239a1.312,1.312,0,0,1,1.068.453,1.861,1.861,0,0,1,.388,1.2,1.888,1.888,0,0,1-.012.351,1.85,1.85,0,0,1-.054.3,1.6,1.6,0,0,1-.414.723,1.549,1.549,0,0,1-.593.36,2.411,2.411,0,0,1-.6.12,3.408,3.408,0,0,1-.653-.038v.108a2.148,2.148,0,0,0,.846.248,2.183,2.183,0,0,0,.847-.1,2.244,2.244,0,0,0,.733-.4,2.028,2.028,0,0,0,.517-.663,1.976,1.976,0,0,0,.194-.89,2.194,2.194,0,0,0-.27-1.114A1.763,1.763,0,0,0,399.693,320.088Z" fill="#040505"/>
      <path id="Path_1544" data-name="Path 1544" d="M410.817,326.372a1.542,1.542,0,0,1-.587.5,2.11,2.11,0,0,1-.932.177h-1.542v-6.423a.7.7,0,0,1,.21-.481.657.657,0,0,1,.479-.2h.141v-.107h-2.361v.107h.141a.657.657,0,0,1,.479.2.705.705,0,0,1,.211.481V326.6a.7.7,0,0,1-.211.479.65.65,0,0,1-.479.2h-.141v.108H410.7l.625-1.746h-.108A3.951,3.951,0,0,1,410.817,326.372Z" fill="#040505"/>
      <path id="Path_1545" data-name="Path 1545" d="M423.138,327.12a1.085,1.085,0,0,1-.432-.522h0l-2.887-6.909h-.1a.983.983,0,0,1-.06.269c-.04.123-.087.248-.141.378s-.12.284-.2.463l-2.456,5.829a1.136,1.136,0,0,1-.417.492,1,1,0,0,1-.512.157h-.1v.108h2.166v-.108h-.1a.463.463,0,0,1-.253-.08.44.44,0,0,1-.178-.232.547.547,0,0,1,.021-.355l.722-1.844h2.908l.7,1.848a.462.462,0,0,1-.046.485.484.484,0,0,1-.366.178h-.1v.108h2.424v-.108h-.086A1.027,1.027,0,0,1,423.138,327.12Zm-4.789-2.678,1.355-3.461,1.3,3.461Z" fill="#040505"/>
      <path id="Path_1546" data-name="Path 1546" d="M431.9,324.2l-2.123-1.962a1.25,1.25,0,0,1-.339-.512,1.527,1.527,0,0,1-.093-.48,1.2,1.2,0,0,1,.368-.867,1.283,1.283,0,0,1,.959-.372,1.3,1.3,0,0,1,.862.3,1,1,0,0,1,.355.814h.1V319.8h-.463l-.124-.027c-.126-.025-.255-.044-.388-.059a3.6,3.6,0,0,0-.372-.021,1.936,1.936,0,0,0-1.04.264,1.715,1.715,0,0,0-.641.684,1.885,1.885,0,0,0-.216.873,1.984,1.984,0,0,0,.13.674,1.684,1.684,0,0,0,.452.663l2.069,1.919a1.227,1.227,0,0,1,.314.436,1.446,1.446,0,0,1,.107.566,1.319,1.319,0,0,1-.425,1.03,1.617,1.617,0,0,1-1.019.415,1.54,1.54,0,0,1-.847-.19,1.352,1.352,0,0,1-.565-.619,1.783,1.783,0,0,1-.14-.96h-.1a3.475,3.475,0,0,0-.12.523,3.757,3.757,0,0,0-.042.545,2.457,2.457,0,0,0,.032.431,1.632,1.632,0,0,0,.545.351,2.954,2.954,0,0,0,.678.188,4.081,4.081,0,0,0,.61.054,1.956,1.956,0,0,0,1.471-.561,2,2,0,0,0,.544-1.455,2.24,2.24,0,0,0-.108-.669A1.5,1.5,0,0,0,431.9,324.2Z" fill="#040505"/>
      <path id="Path_1547" data-name="Path 1547" d="M443.01,319.8a4.282,4.282,0,0,1-.5.033H438.9a4.31,4.31,0,0,1-.5-.033c-.18-.021-.343-.046-.491-.076a2.034,2.034,0,0,1-.329-.085v1.358l.108-.011V320.8a.618.618,0,0,1,.184-.453.655.655,0,0,1,.452-.194h2.027V326.6a.689.689,0,0,1-.21.479.653.653,0,0,1-.48.2h-.14v.108h2.361v-.108h-.14a.651.651,0,0,1-.48-.2.689.689,0,0,1-.21-.479v-6.446h2.026a.665.665,0,0,1,.448.194.61.61,0,0,1,.188.453v.183l.108.011v-1.358a1.646,1.646,0,0,1-.323.085C443.349,319.75,443.185,319.775,443.01,319.8Z" fill="#040505"/>
      <path id="Path_1548" data-name="Path 1548" d="M450.485,319.84h-1.5v.107h.141a.657.657,0,0,1,.479.2.705.705,0,0,1,.211.481V326.6a.7.7,0,0,1-.211.479.65.65,0,0,1-.479.2h-.141v.108h2.361v-.108h-.141a.65.65,0,0,1-.479-.2.693.693,0,0,1-.21-.479v-5.971a.7.7,0,0,1,.21-.481.657.657,0,0,1,.479-.2h.141v-.107h-.862Z" fill="#040505"/>
      <path id="Path_1549" data-name="Path 1549" d="M463.3,325.989a2.537,2.537,0,0,1-1.093.937,3.489,3.489,0,0,1-1.418.287,2.949,2.949,0,0,1-1.589-.475,3.011,3.011,0,0,1-1.068-1.261,4.823,4.823,0,0,1,0-3.767,3.083,3.083,0,0,1,4.424-1.207,2.334,2.334,0,0,1,.971,1.438h.1l-.215-1.52a4.586,4.586,0,0,0-2.556-.732,4.172,4.172,0,0,0-2.063.49,3.442,3.442,0,0,0-1.364,1.369,4.613,4.613,0,0,0,.005,4.128,3.455,3.455,0,0,0,1.364,1.364,4.112,4.112,0,0,0,1.994.5,3.826,3.826,0,0,0,1.321-.211,3.234,3.234,0,0,0,1-.571,3.351,3.351,0,0,0,.706-.824l.129-1.693h-.085A3.838,3.838,0,0,1,463.3,325.989Z" fill="#040505"/>
      <path id="Path_1550" data-name="Path 1550" d="M479.772,324.2l-2.123-1.962a1.261,1.261,0,0,1-.339-.512,1.527,1.527,0,0,1-.093-.48,1.2,1.2,0,0,1,.368-.867,1.283,1.283,0,0,1,.959-.372,1.3,1.3,0,0,1,.862.3,1,1,0,0,1,.355.814h.1V319.8h-.463l-.124-.027c-.126-.025-.255-.044-.388-.059a3.573,3.573,0,0,0-.372-.021,1.938,1.938,0,0,0-1.04.264,1.716,1.716,0,0,0-.641.684,1.886,1.886,0,0,0-.216.873,1.984,1.984,0,0,0,.13.674,1.684,1.684,0,0,0,.452.663l2.069,1.919a1.227,1.227,0,0,1,.314.436,1.446,1.446,0,0,1,.107.566,1.319,1.319,0,0,1-.425,1.03,1.616,1.616,0,0,1-1.019.415,1.54,1.54,0,0,1-.847-.19,1.352,1.352,0,0,1-.565-.619,1.793,1.793,0,0,1-.14-.96h-.1a3.475,3.475,0,0,0-.12.523,3.757,3.757,0,0,0-.042.545,2.454,2.454,0,0,0,.032.431,1.632,1.632,0,0,0,.545.351,2.954,2.954,0,0,0,.678.188,4.08,4.08,0,0,0,.61.054,1.956,1.956,0,0,0,1.471-.561,2,2,0,0,0,.544-1.455,2.24,2.24,0,0,0-.108-.669A1.5,1.5,0,0,0,479.772,324.2Z" fill="#040505"/>
      <path id="Path_1551" data-name="Path 1551" d="M492.394,319.84h-1.228v.107h.172a.586.586,0,0,1,.4.151.5.5,0,0,1,.167.388v4.237a2.676,2.676,0,0,1-.3,1.3,2.188,2.188,0,0,1-.841.868,2.473,2.473,0,0,1-1.261.312,2.132,2.132,0,0,1-2-1.25,3.125,3.125,0,0,1-.285-1.369v-4.1a.5.5,0,0,1,.167-.388.584.584,0,0,1,.4-.151h.173v-.107h-2.188v.107h.171a.586.586,0,0,1,.4.151.5.5,0,0,1,.167.388v4.247a2.845,2.845,0,0,0,.372,1.472,2.561,2.561,0,0,0,1.046.981,3.356,3.356,0,0,0,1.568.35,3.155,3.155,0,0,0,1.53-.356,2.54,2.54,0,0,0,1.019-.986,2.908,2.908,0,0,0,.361-1.471v-4.237a.5.5,0,0,1,.168-.388.581.581,0,0,1,.4-.151h.173v-.107h-.766Z" fill="#040505"/>
      <path id="Path_1552" data-name="Path 1552" d="M504.392,326.878a4.575,4.575,0,0,1-.432-.421c-.107-.114-.237-.269-.388-.463s-.3-.392-.447-.593-.318-.442-.512-.721a5.581,5.581,0,0,0-.377-.448,1.2,1.2,0,0,0-.4-.307,1.563,1.563,0,0,0,.932-.3,2.107,2.107,0,0,0,.657-.771,2.147,2.147,0,0,0,.242-.992,2.307,2.307,0,0,0-.145-.845,1.738,1.738,0,0,0-1.078-1.04,2.589,2.589,0,0,0-.879-.14h-2.91v.107h.141a.657.657,0,0,1,.479.2.7.7,0,0,1,.211.481V326.6a.694.694,0,0,1-.211.479.65.65,0,0,1-.479.2h-.141v.108h2.35v-.108h-.13a.666.666,0,0,1-.484-.2.641.641,0,0,1-.205-.479v-6.425c.272,0,.514,0,.716-.005s.419,0,.62.017a1.279,1.279,0,0,1,.965.469,1.815,1.815,0,0,1,.372,1.169,1.959,1.959,0,0,1-.01.35,2.344,2.344,0,0,1-.054.3,1.465,1.465,0,0,1-.442.722,1.516,1.516,0,0,1-.625.312,3.425,3.425,0,0,1-.615.087c-.158.007-.349.007-.571,0v.107a.787.787,0,0,1,.539.227,3.75,3.75,0,0,1,.453.5l.161.232c.094.133.205.292.335.479s.259.376.393.566.248.353.345.49.155.22.178.248a4.067,4.067,0,0,0,.42.426,2.177,2.177,0,0,0,.609.372,2.207,2.207,0,0,0,.857.151h.593v-.108a1.446,1.446,0,0,1-.566-.107A1.867,1.867,0,0,1,504.392,326.878Z" fill="#040505"/>
      <path id="Path_1553" data-name="Path 1553" d="M515.85,323.882h.172c.367,0,.549.161.549.485l-.01,1.908a3.148,3.148,0,0,1-.69.5,3.622,3.622,0,0,1-1.735.438,2.927,2.927,0,0,1-1.595-.459,3,3,0,0,1-1.079-1.256,4.778,4.778,0,0,1,0-3.772,3.044,3.044,0,0,1,1.079-1.262,2.833,2.833,0,0,1,1.595-.452,3.368,3.368,0,0,1,1.271.227,2.415,2.415,0,0,1,.933.651,2.539,2.539,0,0,1,.533,1.051h.1l-.215-1.52a4.69,4.69,0,0,0-.7-.371,4.225,4.225,0,0,0-.857-.264,5.263,5.263,0,0,0-1.067-.1,4.056,4.056,0,0,0-2.016.49,3.48,3.48,0,0,0-1.364,1.374,4.56,4.56,0,0,0,0,4.113,3.484,3.484,0,0,0,1.364,1.368,4.126,4.126,0,0,0,2.016.5,4.365,4.365,0,0,0,1.428-.211,3.6,3.6,0,0,0,1.7-1.18v-1.778c-.014-.324.165-.485.54-.485h.161v-.108H515.85Z" fill="#040505"/>
      <path id="Path_1554" data-name="Path 1554" d="M527.771,326.372a1.535,1.535,0,0,1-.587.5,2.11,2.11,0,0,1-.932.177h-1.541v-3.222h1.821a.49.49,0,0,1,.366.156.52.52,0,0,1,.152.372v.162h.107v-1.7h-.107v.151a.545.545,0,0,1-.518.539h-1.821v-3.331h2.213a.636.636,0,0,1,.4.189.618.618,0,0,1,.184.447V321h.108v-1.357a1.662,1.662,0,0,1-.324.086c-.151.028-.314.054-.49.075a4.046,4.046,0,0,1-.5.033H523.18l.01.107h.13a.673.673,0,0,1,.484.2.648.648,0,0,1,.206.481V326.6a.694.694,0,0,1-.211.479.65.65,0,0,1-.479.2h-.14v.108h4.473l.625-1.746h-.108A3.892,3.892,0,0,1,527.771,326.372Z" fill="#040505"/>
      <path id="Path_1555" data-name="Path 1555" d="M539.445,326.878a4.7,4.7,0,0,1-.431-.421c-.108-.114-.238-.269-.389-.463s-.3-.392-.446-.593-.318-.442-.513-.721a5.35,5.35,0,0,0-.376-.448,1.206,1.206,0,0,0-.4-.307,1.563,1.563,0,0,0,.932-.3,2.107,2.107,0,0,0,.657-.771,2.147,2.147,0,0,0,.243-.992,2.307,2.307,0,0,0-.145-.845,1.743,1.743,0,0,0-1.079-1.04,2.583,2.583,0,0,0-.878-.14h-2.91v.107h.14a.661.661,0,0,1,.48.2.7.7,0,0,1,.21.481V326.6a.7.7,0,0,1-.21.479.654.654,0,0,1-.48.2h-.14v.108h2.35v-.108h-.13a.669.669,0,0,1-.485-.2.643.643,0,0,1-.2-.479v-6.425c.272,0,.513,0,.716-.005s.418,0,.619.017a1.278,1.278,0,0,1,.965.469,1.815,1.815,0,0,1,.372,1.169,1.953,1.953,0,0,1-.01.35,2.173,2.173,0,0,1-.054.3,1.465,1.465,0,0,1-.442.722,1.5,1.5,0,0,1-.625.312,3.426,3.426,0,0,1-.615.087c-.158.007-.348.007-.571,0v.107a.791.791,0,0,1,.54.227,3.806,3.806,0,0,1,.452.5l.162.232.334.479q.193.281.393.566c.133.191.248.353.345.49s.156.22.178.248a4.17,4.17,0,0,0,.42.426,2.177,2.177,0,0,0,.609.372,2.207,2.207,0,0,0,.857.151h.593v-.108a1.446,1.446,0,0,1-.566-.107A1.867,1.867,0,0,1,539.445,326.878Z" fill="#040505"/>
      <path id="Path_1556" data-name="Path 1556" d="M549.524,319.947h.13a.4.4,0,0,1,.269.1.509.509,0,0,1,.161.259.359.359,0,0,1-.054.306h.006l-1.719,3.009-1.617-3.01a.46.46,0,0,1,.016-.446.394.394,0,0,1,.361-.221h.14v-.107h-2.651v.107h.151a1.128,1.128,0,0,1,.636.194,1.43,1.43,0,0,1,.441.443h.008l2.052,3.434v2.58a.686.686,0,0,1-.211.479.649.649,0,0,1-.479.2h-.141v.108h2.35v-.108h-.129a.669.669,0,0,1-.485-.2.641.641,0,0,1-.2-.479v-2.581l2.122-3.433h0a1.7,1.7,0,0,1,.464-.443,1.108,1.108,0,0,1,.625-.194h.151v-.107h-2.393Z" fill="#040505"/>
    </g>
  </g>
</svg>
