<svg xmlns="http://www.w3.org/2000/svg" width="21.955" height="22" viewBox="0 0 21.955 22">
  <g id="Group_1264" data-name="Group 1264" transform="translate(280.313 -213.782)">
    <path id="Path_1519" data-name="Path 1519" d="M-280.313,235.782c.474-1.742.945-3.4,1.364-5.073a1.626,1.626,0,0,0-.106-1,10.668,10.668,0,0,1,.714-11.116,10.481,10.481,0,0,1,10.061-4.763,10.9,10.9,0,0,1,9.9,10.339,10.982,10.982,0,0,1-8.305,11.166,11.054,11.054,0,0,1-7.324-.727,1.9,1.9,0,0,0-1.137-.1c-1.534.356-3.053.776-4.578,1.169C-279.892,235.712-280.064,235.735-280.313,235.782Zm2.591-2.532c1.072-.279,2-.548,2.941-.748a1.44,1.44,0,0,1,.925.117,9.109,9.109,0,0,0,13.631-7.712,9.119,9.119,0,0,0-9.315-9.32,9.141,9.141,0,0,0-7.552,13.868,1.406,1.406,0,0,1,.135.93C-277.159,231.3-277.436,232.2-277.722,233.249Z" transform="translate(0 0)"/>
    <path id="Path_1520" data-name="Path 1520" d="M-265.533,230.924a8.2,8.2,0,0,1-3.889-1.415,12.267,12.267,0,0,1-3.954-4.288,3.312,3.312,0,0,1,.267-4.135,1.183,1.183,0,0,1,2.111.369,9.462,9.462,0,0,0,.5,1.181,1.21,1.21,0,0,1-.274,1.681c-.429.379-.393.718-.086,1.165a7.745,7.745,0,0,0,3.37,2.828.679.679,0,0,0,.922-.231c.99-1.162,1-1.154,2.365-.489.162.08.325.156.487.236a1.252,1.252,0,0,1,.365,2.181A2.8,2.8,0,0,1-265.533,230.924Z" transform="translate(-0.906 -0.971)"/>
  </g>
</svg>
